{"title":"I.C.U.2009 Screener Xvid LKRG","uid":5990269,"size":654206379,"categoryP":"video","categoryS":"movies","magnet":"?xt=urn:btih:746e2552506ec4a91d788500feae8db46dd059dc&amp;dn=+I.C.U.2009+Screener+Xvid+LKRG&amp;tr=udp%3A%2F%2Ftracker.openbittorrent.com%3A80&amp;tr=udp%3A%2F%2Fopen.demonii.com%3A1337&amp;tr=udp%3A%2F%2Ftracker.coppersurfer.tk%3A6969&amp;tr=udp%3A%2F%2Fexodus.desync.com%3A6969","seeders":0,"leechers":1,"uploader":"neon","files":47,"time":1290818590,"description":" \n--------------------------------------------------------------------------------\n\nINFOFormat;Avi\n\nFile Size:641mb\n\nVideo: ID : 0\nFormat : MPEG-4 Visual\nFormat profile : Advanced Simple@L5\nFormat settings, BVOP : Yes\nFormat settings, QPel : No\nFormat settings, GMC : No warppoints\nFormat settings, Matrix : Default (H.263)\nMuxing mode : Packed bitstream\nCodec ID : XVID\nCodec ID/Hint : XviD\nDuration : 1h 30mn\nBit rate : 888 Kbps\nWidth : 700 pixels\nHeight : 386 pixels\nDisplay aspect ratio : 16:9\nFrame rate : 29.970 fps\nColor space : YUV\nChroma subsampling : 4:2:0\nBit depth : 8 bits\nScan type : Progressive\nBits/(Pixel*Frame) : 0.097\nStream size : 512 MiB (80%)\nWriting library : XviD 1.2.1 (UTC 2008-12-04)\n\nAudio: ID : 1\nFormat : AC-3\nFormat/Info : Audio Coding 3\nMode extension : CM (complete main)\nCodec ID : 2000\nDuration : 1h 30mn\nBit rate mode : Constant\nBit rate : 192 Kbps\nChannel(s) : 2 channels\nChannel positions : Front: L R\nSampling rate : 48.0 KHz\nBit depth : 16 bits\nStream size : 125 MiB (19%)\nAlignment : Aligned on interleaves\nInterleave, duration : 480 ms (14.38 video frames)\nInterleave, preload duration : 960 ms\n\nDuration:1:30\n\nRelease Date:2010\n\nLanguage:English \n--------------------------------------------------------------------------------\n\n\n\n\n\nPlot: sadistic voyeuristic killer is stalking the city. 3 curious teenagers while spying on their neighbors believe they've discovered his identity. But when your holiday high rise apartment is filled with hidden CCTV cameras. WHO is really watching WHO?\n\nCast: Margot Robbie ...\nTristan Waters\nChristian Radford Christian Radford ...\nTroy Waters\nJames Dean James Dean ...\nRicky Dickson\nNatalie Blair Natalie Blair ...\nThe Mystery Woman\nAash Aaron Aash Aaron ...\nDetective Al Stewart\nMatt Flannagan Matt Flannagan ...\nWilliam Waters\nOzzie Devrish Ozzie Devrish ...\nThe Pimp\n\n--------------------------------------------------------------------------------\n","torrent":{"xt":"urn:btih:746e2552506ec4a91d788500feae8db46dd059dc","amp;dn":"+I.C.U.2009+Screener+Xvid+LKRG","amp;tr":["udp%3A%2F%2Ftracker.openbittorrent.com%3A80","udp%3A%2F%2Fopen.demonii.com%3A1337","udp%3A%2F%2Ftracker.coppersurfer.tk%3A6969","udp%3A%2F%2Fexodus.desync.com%3A6969"],"infoHash":"746e2552506ec4a91d788500feae8db46dd059dc","infoHashBuffer":{"type":"Buffer","data":[116,110,37,82,80,110,196,169,29,120,133,0,254,174,141,180,109,208,89,220]},"announce":[],"urlList":[]}}